<mxfile host="app.diagrams.net" modified="2023-05-09T12:49:15.132Z" agent="Mozilla/5.0 (X11; Linux x86_64) AppleWebKit/537.36 (KHTML, like Gecko) Chrome/113.0.0.0 Safari/537.36" version="21.2.9" etag="SZ3D63caQu0_M4oy4yvm" type="github">
  <diagram name="Page-1" id="hcm1D6ilT0ykjaroiDRH">
    <mxGraphModel>
      <root>
        <mxCell id="0" />
        <mxCell id="1" parent="0" />
      </root>
    </mxGraphModel>
  </diagram>
</mxfile>
